<?xml version="1.0" encoding="utf-8"?>
<svg xmlns="http://www.w3.org/2000/svg" xmlns:xlink="http://www.w3.org/1999/xlink" version="1.1" id="coffee" x="0px" y="0px" viewBox="0 0 3000 3000" style="enable-background:new 0 0 3000 3000;">
  <style type="text/css">.st0{clip-path:url(#SVGID_00000107582141390979505460000016896927748421173129_)}</style>
  <g>
    <defs>
      <rect id="SVGID_1_" width="3000" height="3000"/>
    </defs>
    <clipPath id="SVGID_00000021099553449825019430000011065544027939324800_">
      <use xlink:href="#SVGID_1_" style="overflow:visible;"/>
    </clipPath>
    <g style="clip-path:url(#SVGID_00000021099553449825019430000011065544027939324800_);">
      <rect x="-22.3" y="-40.8" width="3068.9" height="3066.3" style="fill:#FF6E00"/>
      <path d="M2838.2,466c-14.2,0-28,1.6-41.3,4.4L2644,282l-191.7-132.5L1984.6-9.4l-612.4-22.4L914.2,43.9l-391,222.4&#xA;			L385.1,456c-31.5-8.2-52.4,79-88,79c-161.3,0-252,92.7-252,207s90.7,207,252,207c32.5,0,63.7-3.8,92.9-10.8&#xA;			c-0.2,4.8-0.3,9.7-0.3,14.6c0,150.3,84.1,272.2,187.9,272.2c65.1,0,122.5-48,156.2-121l77.7,57.6h1358.3&#xA;			c35.1,66.5,105,111.9,185.4,111.9c115.8,0,209.6-93.8,209.6-209.6c0-16.2-1.9-32-5.4-47.2c10.4,1.8,21.2,2.7,32.1,2.7&#xA;			c99.8,0,181.9-75.8,191.9-173c17.4,5.1,35.7,7.9,54.7,7.9c107.2,0,194.2-86.9,194.2-194.2S2945.4,466,2838.2,466L2838.2,466z" style="fill:#FFBB7E"/>
      <ellipse transform="matrix(0.632 -0.7749 0.7749 0.632 -66.84 269.6635)" cx="250.5" cy="205.2" rx="255.2" ry="448" style="fill:#FFBB7E"/>
      <ellipse transform="matrix(0.6826 -0.7308 0.7308 0.6826 -112.2265 341.8977)" cx="337.5" cy="300.2" rx="288.5" ry="255.2" style="fill:#FFBB7E"/>
      <ellipse transform="matrix(0.6826 -0.7308 0.7308 0.6826 63.34 336.1757)" cx="418.7" cy="95.2" rx="288.5" ry="255.2" style="fill:#FFBB7E"/>
      <ellipse transform="matrix(0.6826 -0.7308 0.7308 0.6826 714.6701 2246.1567)" cx="2943.3" cy="300.3" rx="288.5" ry="255.2" style="fill:#FFBB7E"/>
      <ellipse transform="matrix(0.6826 -0.7308 0.7308 0.6826 696.1483 1767.4862)" cx="2383" cy="82.3" rx="288.5" ry="255.2" style="fill:#FFBB7E"/>
      <ellipse transform="matrix(0.6826 -0.7308 0.7308 0.6826 833.7321 2084.3252)" cx="2816.5" cy="82.3" rx="288.5" ry="255.2" style="fill:#FFBB7E"/>
      <ellipse transform="matrix(0.6826 -0.7308 0.7308 0.6826 846.644 2048.0369)" cx="2781.2" cy="49.3" rx="288.5" ry="255.2" style="fill:#FFBB7E"/>
      <path d="M768.5-42.6L538.4,360.1c0,0-517.1,467.8-18.9,381.9c0,0-100.9,390.4,304.8,434.2&#xA;			c402.8,43.5,841,49.9,841,49.9l519.7-82.4c0,0,348.6,30.3,197.8-177.4c0,0,360-20,179.2-298c0,0,329.9,197.2,274.9-225&#xA;			C2781.9,21.2,2217.3-39,2217.3-39L768.5-42.6" style="fill:#FFA07B"/>
      <path d="M2091.3,3031c0,0,220.1-1305.4,251.6-1729.2c1.5-19.7,7.1-60.3,0-78.9c-74.9-197.2-160.3-184.1-873.3-164.3&#xA;			c-713,19.7-845.8,3.5-838.8,162.7c20.1,457.8,223.6,1821.6,223.6,1821.6L2091.3,3031L2091.3,3031z" style="fill:#FFE5D5"/>
      <path d="M2219.5,1644.9c0,0,546.9-39.4,522.6,364c-24.3,403.4-401,416.1-631.9,403.4s69.2-140.7,69.2-140.7&#xA;			s400.1,41.8,392.6-262.7c-7.6-304.5-413.2-105.2-413.2-105.2L2219.5,1644.9L2219.5,1644.9z" style="fill:#FFE5D5"/>
      <path d="M2217.3,1281.7c0,0,47.6-100.9-32.3-138s-590.9-31-750.6-25.3c-123.8,4.4-476.1,41.4-610.2,57.8&#xA;			c-37,4.5-66.4,33.2-71.7,70.1l-8.1,55.8l832.6,95.7L2217.3,1281.7L2217.3,1281.7z" style="fill:#FFBB7E"/>
      <path d="M1479.4,1402.2c188.4-7.4,736.2-54,737.9-120.5c2.9-116.9-747.3-87.8-747.3-87.8s-700.9,9.8-726.9,88.4&#xA;			C701.8,1406.7,1288.1,1409.8,1479.4,1402.2L1479.4,1402.2z" style="fill:#6E0010"/>
      <path d="M1145.1,1297.1c4,26.5-69.8,37.7-102.7,42.6c-32.9,4.9-62.3,5.7-66.2-20.8s28.2-37.7,61.1-42.6&#xA;			C1070.2,1271.3,1141.1,1270.6,1145.1,1297.1L1145.1,1297.1z" style="fill:#FFBB7E"/>
      <path d="M1770.6,1922.7c81.8,157,25.2,424.5-148.6,458.1c-199,38.5-347.8,38.6-429.5-118.4&#xA;			c-81.8-157-23.6-368.4,133.4-450.2S1688.8,1765.7,1770.6,1922.7L1770.6,1922.7z" style="fill:#FF0000"/>
      <path d="M1293.6,1285.2c4.5,29.8-42.7,37-63.8,40.2c-21.1,3.2-40.1,1.8-44.6-28c-4.5-29.8,15.7-40,36.7-43.2&#xA;			C1243,1251,1289.1,1255.4,1293.6,1285.2L1293.6,1285.2z" style="fill:#FFBB7E"/>
      <circle cx="1807.4" cy="297.3" r="111.8" style="fill:#FFBB7E"/>
      <ellipse transform="matrix(0.7071 -0.7071 0.7071 0.7071 -282.3664 1139.2584)" cx="1234" cy="910.5" rx="104.1" ry="104.1" style="fill:#FFBB7E"/>
      <ellipse transform="matrix(0.9187 -0.3949 0.3949 0.9187 -112.9296 380.6072)" cx="868.2" cy="464.6" rx="163.3" ry="110.7" style="fill:#FFBB7E"/>
      <g>
        <path d="M2010.1,861.9c-5.4,3.5-6.5,11.1-2.1,15.8c0,0,0.1,0.1,0.1,0.1c43.9,47.2,147.9,21.1,232.2-58.3&#xA;				s136.7-219.7,73.1-229.3C2297.6,587.8,2097.2,806.1,2010.1,861.9L2010.1,861.9z" style="fill:#FFBB7E"/>
        <path d="M2112.2,748.3c71.1-58.3,122.9-113.2,153.8-162.8c4.4-7.1-0.9-16.2-9.1-15.9&#xA;				c-65.3,1.9-163.3,48.8-224.2,108.8c-56.8,55.9-66.5,108.6-52.4,151.1c2.2,6.5,9.9,9,15.6,5.2&#xA;				C2028.6,812.5,2070.3,782.7,2112.2,748.3L2112.2,748.3z" style="fill:#FFBB7E"/>
      </g>
      <g>
        <path d="M551.3,2234.6c3.9,3.9,3.5,11.6-1,16c0,0-0.1,0.1-0.1,0.1c-44.7,43.6-126.4,8.7-182.6-77.8&#xA;				s-75.2-231.2-20.7-235.5C360.5,1936.3,488.8,2171.5,551.3,2234.6z" style="fill:#6E0010"/>
        <path d="M486.4,2112.4c-48.8-64.2-82.2-123.6-99.3-175.8c-2.4-7.4,3.5-16.1,10.4-15.2c53.8,7.3,127,62.5,167.1,127.6&#xA;				c37.4,60.7,36.3,114.2,17.2,155.5c-2.9,6.3-9.8,8.1-13.8,3.9C544.6,2183.6,515.1,2150.2,486.4,2112.4L486.4,2112.4z" style="fill:#6E0010"/>
      </g>
      <g>
        <path d="M2547.7,1581.4c-3.3,5.2-11.8,6.7-17.6,3c0,0-0.1-0.1-0.1-0.1c-58.7-37.4-41.8-135.1,37.8-218.2&#xA;				c79.6-83.1,231.9-140.7,250.5-82.7C2822.9,1297.9,2600.2,1497.3,2547.7,1581.4L2547.7,1581.4z" style="fill:#6E0010"/>
        <path d="M2663.8,1479.6c57.3-69.4,113.2-120.9,165.5-152.8c7.5-4.6,18.4-0.3,19.1,7.4&#xA;				c5.8,60.3-35.4,153.9-95.9,214.1c-56.4,56.1-114.8,68.6-164.5,58.4c-7.6-1.6-11.4-8.6-7.7-14&#xA;				C2601.3,1561,2630,1520.5,2663.8,1479.6z" style="fill:#6E0010"/>
      </g>
      <g>
        <path d="M1274,2053.4c48.7-3.7,104.8-6.4,153.6-8.1c48.8-1.7,97.6-2.2,146.4-1.1c13.5,0.3,27,0.8,40.5,1.3&#xA;				c11.9,0.5,23.9,0.7,35.7,2.2c-2.4-0.3-4.7-0.6-7.1-0.9c7.2,1,14.3,2.5,21.1,5.3c-2.1-0.9-4.2-1.8-6.4-2.6&#xA;				c3.4,1.4,6.6,3.2,9.5,5.4c-1.8-1.4-3.6-2.8-5.4-4.1c2.1,1.6,4,3.4,5.6,5.5c-1.4-1.8-2.8-3.6-4.2-5.4c1.4,1.9,2.5,3.8,3.5,5.9&#xA;				c-0.9-2.1-1.8-4.2-2.7-6.3c0.8,2.1,1.4,4.2,1.8,6.5c-0.3-2.4-0.7-4.7-1-7.1c0.3,2.4,0.3,4.8,0,7.2c0.3-2.4,0.6-4.7,0.9-7.1&#xA;				c-0.4,2.9-1.2,5.6-2.3,8.3c0.9-2.1,1.8-4.2,2.7-6.4c-1.5,3.4-3.4,6.5-5.6,9.5c1.4-1.8,2.8-3.6,4.1-5.4c-3.2,4.1-6.9,7.8-11,11.1&#xA;				c1.8-1.4,3.6-2.8,5.4-4.2c-6.3,4.9-13.2,9.1-20.1,13c-7,4-14.3,7.7-21.7,10.9c2.1-0.9,4.2-1.8,6.3-2.7&#xA;				c-15.5,6.6-31.8,11.1-48.5,13.4c2.4-0.3,4.7-0.7,7.1-1c-14.2,1.9-28.5,2.4-42.8,1.7c-6.6-0.3-14.2,3.3-18.8,7.9&#xA;				c-4.6,4.6-8,12.2-7.7,18.9c0.3,6.9,2.6,14,7.9,18.8s11.5,7.4,18.9,7.7c21.8,1,43.8-0.7,65.2-5.4c17.6-3.9,34.7-10.5,50.8-18.6&#xA;				c6.4-3.2,12.5-6.7,18.6-10.5c8.6-5.4,17.2-11.2,24.3-18.5c2.3-2.4,4.2-4.9,6.2-7.6c2.1-2.8,4.2-5.5,5.9-8.5&#xA;				c3.1-5.6,5.8-11.9,6.8-18.3c1.3-8.7,1.7-17.2-1.1-25.8c-2.6-8.1-6.1-13.7-11.4-20.1c-7.3-8.9-18.1-14.2-28.7-18.1&#xA;				c-9.4-3.5-19.6-4.7-29.6-5.8c-10.4-1.1-20.9-1.3-31.3-1.8c-11.8-0.5-23.5-0.9-35.2-1.2c-46.9-1.2-93.8-0.9-140.6,0.6&#xA;				c-46.9,1.5-101.2,3.8-147.9,7.2c-5.9,0.4-11.7,0.9-17.6,1.3c-7.1,0.5-13.6,2.7-18.8,7.9c-4.6,4.6-8,12.2-7.7,18.9&#xA;				c0.3,6.9,2.6,14,7.9,18.8c5,4.6,19.3,8.5,26.3,8L1274,2053.4L1274,2053.4z" style="fill:#FFF5B7"/>
        <path d="M1417.1,2097c-9.1,21.7-21,42.2-35.3,60.9c1.4-1.8,2.8-3.6,4.1-5.4c-13.4,17.5-28.9,33.7-46.2,47.3&#xA;				c1.8-1.4,3.6-2.8,5.4-4.2c-3.6,2.8-7.4,5.3-11.6,7.2c2.1-0.9,4.2-1.8,6.3-2.7c-2.4,1-4.9,1.8-7.4,2.2c2.4-0.3,4.7-0.7,7.1-1&#xA;				c-2.2,0.3-4.4,0.4-6.7,0.1c2.4,0.3,4.7,0.6,7.1,0.9c-2-0.3-3.9-0.7-5.7-1.5c2.1,0.9,4.2,1.8,6.4,2.6c-1.2-0.6-2.3-1.2-3.4-1.9&#xA;				c1.8,1.4,3.6,2.8,5.4,4.1c-1.2-0.9-2.3-2-3.3-3.2c1.4,1.8,2.8,3.6,4.2,5.4c-1.2-1.6-2.1-3.2-2.9-5c0.9,2.1,1.8,4.2,2.7,6.3&#xA;				c-1.7-4.1-2.5-8.6-3.1-13c0.3,2.4,0.7,4.7,1,7.1c-4-29.6-5.3-59.6-3.9-89.4c0.3-6.6-3.3-14.2-7.9-18.8c-4.6-4.6-12.2-8-18.9-7.7&#xA;				c-6.9,0.3-14,2.6-18.8,7.9c-4.9,5.4-7.4,11.5-7.7,18.9c-1,22.1-0.6,44.2,1.3,66.2c0.5,5.5,1.1,11,1.7,16.5&#xA;				c0.8,6.8,1.5,13.7,3,20.4c0.4,2,1,3.9,1.7,5.7c1.5,3.9,3,8,5.5,11.5c2.3,3.2,4.7,6.6,7.9,9.1c5.7,4.5,9.3,6.7,16.4,9.2&#xA;				c3.8,1.4,8.3,1.7,12.2,2c4.3,0.4,8.9-0.5,13.1-1.2c6.5-1.1,12.9-4,18.5-7.4c5.8-3.5,11.1-7.9,16.3-12.3c3.6-3,7.1-6.1,10.5-9.2&#xA;				c15.1-14,28.3-29.7,40.4-46.3c12.3-17,22.6-35.4,30.7-54.7c1.9-3.1,3-6.4,3.1-9.9c0.8-3.5,0.6-7.1-0.5-10.6&#xA;				c-1.7-6.2-6.5-12.8-12.3-15.9c-6.2-3.2-13.7-4.8-20.5-2.6c-2.1,0.9-4.2,1.8-6.3,2.7C1422.6,2089.8,1419.5,2093,1417.1,2097&#xA;				L1417.1,2097L1417.1,2097z" style="fill:#FFF5B7"/>
        <path d="M1660.9,2183.5c-41.8,0.8-83.5,1.6-125.3,2.4c-11.8,0.2-23.5,0.4-35.3,0.7c-6.9,0.1-13.9,3-18.8,7.9&#xA;				c-4.6,4.6-8,12.2-7.7,18.9c0.3,6.9,2.6,14,7.9,18.8c5.2,4.7,11.7,7.8,18.9,7.7c41.8-0.8,83.5-1.6,125.3-2.4&#xA;				c11.8-0.2,23.5-0.4,35.3-0.7c6.9-0.1,13.9-3,18.8-7.9c4.6-4.6,8-12.2,7.7-18.9c-0.3-6.9-2.6-14-7.9-18.8&#xA;				C1674.6,2186.5,1668.1,2183.4,1660.9,2183.5L1660.9,2183.5z" style="fill:#FFF5B7"/>
      </g>
      <path d="M533.1-114c0,0-415,244.5-134.5,368c0,0,45.5,115.5,207.3,110.1s369.9-155.8,369.9-155.8L958.6-84.5&#xA;			L533.1-114L533.1-114z" style="fill:#FFA07B"/>
      <ellipse transform="matrix(0.4029 -0.9152 0.9152 0.4029 164.7532 466.3298)" cx="439.8" cy="106.9" rx="304.5" ry="400.8" style="fill:#FFA07B"/>
      <ellipse transform="matrix(0.4029 -0.9152 0.9152 0.4029 197.9345 239.8897)" cx="282.8" cy="-31.8" rx="304.5" ry="400.8" style="fill:#FFA07B"/>
    </g>
  </g>
</svg>