<?xml version="1.0" encoding="utf-8"?>
<svg xmlns="http://www.w3.org/2000/svg" xmlns:xlink="http://www.w3.org/1999/xlink" id="globe" viewBox="0 0 3000 3000">
  <defs>
    <clipPath id="clippath">
      <rect width="3000" height="3000" style="fill:none"/>
    </clipPath>
  </defs>
  <g style="clip-path:url(#clippath)">
    <rect x="-13.17" y="1.74" width="3021.03" height="3021.03" style="fill:#ffe5d5"/>
    <path d="M1607.13,1381.87L2710.14-160.76,1816.89-21l-292.84,1360.48c-22.96-5.92-47.29-8.15-72.25-5.96-37.2,3.26-71.33,15.84-100.33,35.22L-44.86-446.6-14.46,1083.62l1281.42,395.85c-8.49,25.46-12.27,52.91-10.47,81.25L-76.16,1487.33v802.78l1360.99-635.47c13.87,23.95,32.2,44.83,53.75,61.66L201.54,3076.21l885.64-29.31,339.4-1289.7c20.1,4.2,41.14,5.59,62.65,3.71,47.21-4.13,89.47-23.29,122.56-52.31l1352.35,1546.82,223.65-965.31-1519.11-660.8c11.09-26.71,16.9-56.01,16.25-86.49l1334.46-10.56,111.98-576.01-1460.41,514.59c-13.38-35.18-35.62-65.67-63.84-88.99Z" style="fill:#ffbb7e"/>
    <circle cx="1469.98" cy="1507.98" r="826.68" style="fill:#1a65ff"/>
    <path d="M1450.75,656.7c-46.47-4.39-77.93,47.29-51.8,85.97,11.75,17.39,31.63,34.66,64.2,49.04,115.81,51.14,190.41,152.2,82.12,349.23-108.29,197.03,217.91,252.91,318.74,209.72,100.83-43.2,180.63-3.46,363.37,122.12,5.21,3.58,10.28,6.86,15.21,9.85,52.21,31.74,118.16-11.01,111.1-71.7-15.59-134.08-80.28-382.6-298.48-540.3-230.03-166.25-489.11-203.04-604.47-213.93Z" style="fill:#67cf00"/>
    <path d="M1408.35,2353.18c-137.58-2.94,61.17-209.48,153.94-290.68,92.77-81.2,168.58,47.37,257.53-202.81,88.95-250.18,201.24-205.8,333.24-61.45,132.01,144.36-7.16,271.97-7.16,271.97,0,0-232.57,293.75-737.56,282.97Z" style="fill:#67cf00"/>
    <path d="M741.05,1871.36s117.92,108.96,87.39-112.56c-30.53-221.52,51.37-159.73,161.75-199.84,110.38-40.11,74.01-121.56,90.86-165.69,18.38-48.12,160.4-131.57,93.56-183.59-157.11-122.29-150.49-130.71-111.37-159.65,58.82-43.51,210.22-46.94,134.21-149.91-58.91-79.81-215.08-44.49-282.36-24.56-20.58,6.1-38.81,18.19-52.43,34.77-93.43,113.81-454.52,600.57-121.61,961.03Z" style="fill:#67cf00"/>
    <path d="M1135.3,1757.09c43.79-50.44,105.75-272.22,215.83-157.5,110.09,114.73,97.56,225.6-93.3,362.84-190.86,137.25-293.56-42.3-238.84-106.54,54.72-64.24,91.3-70,116.31-98.81Z" style="fill:#67cf00"/>
    <path d="M1488.24,2585.66c-139.17,0-280.56-26.61-417-82.83-175.93-72.48-330.47-189.62-446.91-338.75-112.88-144.57-188.45-316.67-218.54-497.72-5.27-31.65,16.13-61.57,47.78-66.84,31.66-5.28,61.58,16.14,66.83,47.79,26.92,161.97,94.53,315.94,195.5,445.26,104.07,133.29,242.24,238,399.59,302.82,121.98,50.26,248.48,74.05,372.89,74.07,386.34,.03,753.4-229.3,909.45-608.09,137.91-334.75,80.96-716.88-148.63-997.28-20.33-24.83-16.68-61.43,8.15-81.76,24.82-20.32,61.42-16.68,81.76,8.14,256.72,313.52,320.39,740.82,166.17,1115.15-174.51,423.56-585.04,680.02-1017.03,680.02Z" style="fill:#3d005e"/>
    <path d="M242.76,1975.79c-24.62,0-47.48-15.78-55.35-40.49-9.73-30.58,7.17-63.25,37.75-72.98l240.49-76.53c30.55-9.72,63.25,7.17,72.98,37.74,9.73,30.58-7.17,63.25-37.75,72.98l-240.49,76.53c-5.86,1.86-11.8,2.75-17.63,2.75Z" style="fill:#3d005e"/>
    <path d="M2438.58,1053.35c-19.7,0-38.9-10.01-49.81-28.11-16.57-27.48-7.72-63.18,19.76-79.75l259.37-156.35c27.49-16.57,63.19-7.72,79.75,19.76,16.57,27.48,7.72,63.18-19.76,79.75l-259.37,156.35c-9.38,5.65-19.73,8.35-29.94,8.35Z" style="fill:#3d005e"/>
    <path d="M1192.1,2805.5c-5.02,0-10.12-.66-15.2-2.03-30.97-8.37-49.29-40.27-40.92-71.25l63.75-235.79c8.37-30.98,40.27-49.31,71.25-40.92,30.97,8.37,49.29,40.27,40.92,71.25l-63.75,235.79c-7,25.9-30.45,42.95-56.05,42.95Z" style="fill:#3d005e"/>
    <path d="M500.07,2760.3c101.45,44.18,210.34,77.36,312.69,119.24,64.27,29.41,119.89,68.52,187.19,86.72,153.37,46.2,312.06,76.14,469.18,109.95,.69-.32,1.41-.55,2.09-.89,46.48-23.24,98.76-23.24,145.24-29.05,102.05-17.49,202.63-26.2,302.48-30.54-233.07-171.34-702.17-414.68-1363.46-268.48-18.32,4.05-36.8,8.4-55.41,13.06Z" style="fill:#3d005e"/>
    <path d="M1298.33,281.83l103.64-12.92c5.44-1.17,10.25-4.93,13.18-10.29l56.89-90.98c9.31-17.05,32-12.83,34.55,6.43l10.82,103.58c.8,6.06,3.94,11.3,8.59,14.35l88.12,61.64c14.79,9.7,10.01,35.38-7.28,39.11l-102.39,15.01c-5.44,1.17-10.25,4.93-13.18,10.29l-56.89,90.98c-9.31,17.05-32,12.83-34.55-6.43l-10.82-103.58c-.8-6.06-3.94-11.3-8.59-14.35l-89.38-63.73c-14.79-9.7-10.01-35.38,7.28-39.11Z" style="fill:#ffbb7e"/>
    <path d="M2390.97,2240.68l84.33-4.84c4.47-.68,8.68-3.65,11.53-8.11l54.1-75.34c9.06-14.2,26.86-9.15,27.11,7.69l-.97,90.4c.08,5.29,2.11,10.03,5.55,12.95l64.94,58.79c10.96,9.31,4.73,31.26-9.48,33.44l-83.52,6.73c-4.47,.68-8.68,3.65-11.53,8.11l-54.1,75.34c-9.06,14.2-26.86,9.15-27.11-7.69l.97-90.4c-.08-5.29-2.11-10.03-5.55-12.95l-65.75-60.68c-10.96-9.31-4.73-31.26,9.48-33.44Z" style="fill:#ffe5d5"/>
    <path d="M304.26,909.01l96.52-33.72c4.95-2.19,8.69-6.43,10.25-11.61l33.35-89.48c4.96-16.47,27.73-17.89,34.69-2.16l34.62,85.25c2.19,4.95,6.43,8.69,11.61,10.25l99.05,32.76c16.47,4.96,17.89,27.73,2.16,34.69l-94.82,35.22c-4.95,2.19-8.69,6.43-10.25,11.61l-33.35,89.48c-4.96,16.47-27.73,17.89-34.69,2.16l-34.62-85.25c-2.19-4.95-6.43-8.69-11.61-10.25l-100.75-34.25c-16.47-4.96-17.89-27.73-2.16-34.69Z" style="fill:#ffe5d5"/>
    <path d="M-44.86,3032.06s349.28-248.71,656.14-296.32,450.93,80.88,450.93,80.88l682.67,292.02H13.55l-58.4-76.57Z" style="fill:#3d005e"/>
  </g>
</svg>