<?xml version="1.0" encoding="utf-8"?>
<svg xmlns="http://www.w3.org/2000/svg" xmlns:xlink="http://www.w3.org/1999/xlink" id="football" viewBox="0 0 3000 3000">
  <defs>
    <clipPath id="clippath">
      <rect y="-5.61" width="3000" height="3000" style="fill:none"/>
    </clipPath>
  </defs>
  <g style="clip-path:url(#clippath)">
    <rect x="-28.24" y="-28.02" width="3044.82" height="3044.82" style="fill:#fa867e"/>
    <path d="M-28.24,2017.43l811.57-87.27c152.41-20.26,282.36,109.8,263.71,263.95l-154.88,827.76,414.93,20.25-145.85-983.44,412.46,983.44h236.34l-556.09-982.73,985.23,982.73,604.89,3.37L1222.22,1916.75l1911.18,796.58-70.43-822.79-1616.51-65.83c-152.76,23.78-287.93-175.95-271.28-331.16l-.24-1557.91-503.62-34.22,367.1,1790.76L274.83-83.1-83.47-141.94,956.82,1686.64-126.79,441.28-45.83,1012.58l1012.07,801.04L-83.47,1504.19-28.24,2017.43Z" style="fill:#ffa07b"/>
    <path d="M2832.18,1281.68c29.34-87.6,13.66-152.65-8.53-167.06-202.49-131.58-847.85,558.55-847.85,558.55l-267.51,942.87s230.78,157.88,332.47-10.69c66.92,33.83,158.8,58.27,185.86-42.1,26.13-96.94-62.88-133.88-139.67-147.89,1.44-30.68,1.31-64.57-.68-102.1-3.95-74.62,3.64-141.58,19.99-202.36,57.96,51.54,150.94,109.62,201.63,11.54,49.88-96.5-48.21-154.9-124.02-184.19,68.96-106.29,165.95-190.32,264.1-266.03,29.33,61.56,115.13,213.48,210.38,118.76,79.68-79.25-7.45-171.5-72.14-222.89,53.2-40.53,102.57-80.52,143.14-122.56,40.88,64.79,107.57,134.43,179.67,62.72,81.63-81.19-11.81-176.03-76.84-226.58Z" style="fill:#6e0010"/>
    <path d="M1824.26,1136.42s133.41,158.52,329.62-72.29c196.21-230.81,62.8-307.07,62.8-307.07,0,0,43.96-70.52,81.96-38.9,38,31.61,673.25,154.11,493.5,501.67-145.13,280.62-717.14,490.19-802,931.22-78.13,406.08-226.76,756.91-379.39,321.03-130.6-372.97,123.38-816.5,156.41-925.95,70.49-233.56,26.95-282.09,8.51-326.06-18.44-43.97-35.13-88.48,48.58-83.65Z" style="fill:red"/>
    <path d="M1711.51,1468.23c3.29-5.21,7.31-10.04,12.08-14.31,8.49-7.61,211.11-185.43,478.91-101.42,34.02,10.67,53.06,48.23,42.53,83.89-10.54,35.65-46.64,55.91-80.66,45.24-200.99-63.05-355.84,72.89-357.38,74.27-27.16,24.34-67.85,21.24-90.88-6.92-18.99-23.22-20.04-56.24-4.6-80.75Z" style="fill:#6e0010"/>
    <path d="M1631.26,1719.84c3.08-5.38,6.91-10.41,11.51-14.92,8.19-8.06,203.8-196.46,475.41-127.6,34.5,8.75,55.1,45.11,46.02,81.23-9.09,36.1-44.42,58.3-78.92,49.55-203.84-51.68-353.34,92.35-354.83,93.82-26.2,25.76-67.07,24.92-91.28-1.86-19.97-22.09-22.37-54.92-7.91-80.2Z" style="fill:#6e0010"/>
    <path d="M1880.49,1208.04S1133.63,347.73,941.06-24.08c0,0,494.07-110.33,693.44-29.29,199.37,81.04,90.72,597.96,582.18,810.43,273.86,118.39,118.73,304.89,58.35,344.7-105.54,69.58-394.54,106.28-394.54,106.28Z" style="fill:#fff5b7"/>
    <path d="M1687.08,1928.38c-34.16-441.46-366.48-775.76-742.25-746.68-375.77,29.08-652.7,410.53-618.53,851.99,34.16,441.46,366.48,775.76,742.25,746.68,375.77-29.08,652.69-410.53,618.53-851.99Z" style="fill:#fff5b7"/>
    <path d="M1369.6,1313.07c-35.34-20.68-99.22,12.23-105.92,52.63-1.61,9.73-2.24,19.17-2.1,28.25-63.92,5.72-156.25,14.59-266.76,26.95-48.1-28.4-119.54-52.01-168.02-66.11-6.97-2.03-14.05-3.32-21.15-3.99-10.08-21.16-23.62-53.33-31.32-101.6-3.06-19.16-21.08-32.21-40.23-29.16-19.16,3.06-32.22,21.07-29.16,40.23,7.58,47.52,20.21,82.42,30.86,106.74-2.04,1.25-4.05,2.55-6.02,3.94-53.3,37.51-140.86,102.74-183.58,154.45-18.9-1.64-40.77-9.16-57.87-31.15-11.92-15.33-34-18.08-49.3-6.16-15.31,11.91-18.08,33.99-6.16,49.3,23.84,30.66,53.41,46.61,82.36,53.75-18.08,69.45-38.92,184.83-16.63,245.48-64.5,127.95-100.88,231.23-118.67,288.9l-24.4-8.59c-17.86-6.29-35.69,9.39-31.75,27.91,19.86,93.36,80.37,319.52,218.71,436.34,14.32,12.09,36.39,3.92,39.51-14.56l9.63-57c42.47,6.46,110.82,14.57,186.49,14.57,28.98,0,59.03-1.28,89.1-4.2,42.01,44.19,143.79,95.29,213.39,127.06,12.35,5.64,25.25,9.4,38.34,11.45,8.75,27.77,13.7,63.17-.42,95.58-7.75,17.79,.39,38.49,18.18,46.24,4.57,1.99,9.33,2.93,14.02,2.93,13.55,0,26.47-7.89,32.23-21.11,19.87-45.6,16.78-92.19,7.14-130.08,9.35-3.27,18.46-7.45,27.13-12.64,74.88-44.89,190.72-119.12,222.37-166.19,19.57,16.18,40.53,37.02,55.84,61.43,6.67,10.64,18.1,16.47,29.8,16.47,6.38,0,12.83-1.74,18.63-5.38,16.44-10.31,21.41-31.99,11.1-48.43-28.48-45.42-70.25-79.89-100.31-100.84-2.26-68.16-28.36-157.2-58.28-210.01,72.16-125.49,125.58-239.82,155.78-308.7,19.02,4.43,40.38,4.29,58.48,2.68,25.63-2.28,50.3-20.78,51.95-46.45,16.76-261.71-176.32-452.69-292.93-520.94Zm-374.85,890.94c-46.35,65.62-121.35,178.24-141.76,246.73-118.05,10.16-237.5-7.99-277.52-15.05-36.62-40.74-105.57-127.58-142.81-239.23,.61-1.56,1.19-3.14,1.58-4.82,.35-1.5,31.28-130.24,121.61-312.36,69.33,9.6,198.75-14.3,268.12-29,3.64-.77,7.22-1.73,10.73-2.85,30.2,79.88,92.67,225.19,181.51,332.37-7.95,7.2-15.17,15.27-21.47,24.19Zm101.84-61.13c-5.72,.72-11.35,1.81-16.89,3.17-93.81-107.3-160-270.78-186.13-342.33,.96-1.39,2-2.7,2.89-4.14,48.07-76.7,146.88-242.49,149.71-313.65,96.03-10.41,175.7-17.94,231.13-22.84,4,9.05,8.26,16.92,12.15,23.34,7.19,11.85,18.46,20.44,31.52,25.08,147.44,52.41,164.81,229.39,179.29,308.88-24.87,58.45-80.25,182.2-158,319.08-59.91-15.92-173.91-5.63-245.67,3.41Z" style="fill:#6e0010"/>
  </g>
</svg>